<svg width="418" height="180" viewBox="0 0 418 180" fill="none" xmlns="http://www.w3.org/2000/svg">
<path d="M87.2265 13.8473C85.9129 14.4692 84.5893 15.0517 83.246 15.6045C81.9027 16.1573 80.5594 16.6212 79.2162 16.9964C77.8729 17.3814 76.6086 17.5689 75.4431 17.5689C73.1022 17.5689 71.2749 16.8779 69.9613 15.5057C68.6476 14.1336 67.9957 11.8927 67.9957 8.79303C67.9957 7.3419 68.0649 6.34486 68.2031 5.80192C68.3414 5.24911 68.4106 4.80489 68.4106 4.45938C68.4106 3.97567 67.9661 3.73875 67.0673 3.73875C65.6153 3.87695 63.6893 4.70617 61.2793 6.21653C58.8692 7.72689 55.9061 10.491 52.3898 14.4791C50.9379 16.1968 49.7921 17.6676 48.923 18.872C48.0636 20.0763 47.3722 21.0734 46.8586 21.873C46.345 22.6627 45.9796 23.2352 45.7721 23.5808C45.5647 23.9263 45.3968 24.0941 45.2585 24.0941C44.8437 24.0941 44.6363 23.9263 44.6363 23.5808C44.6363 23.4425 44.982 22.791 45.6734 21.6163C46.3648 20.4416 47.2932 19.0497 48.4686 17.4307C49.644 15.8118 51.0169 14.0546 52.6071 12.1593C54.1973 10.2639 55.8962 8.54624 57.7235 6.99639C59.5508 5.44654 61.4472 4.15336 63.4127 3.12671C65.3783 2.09019 67.3241 1.61635 69.2501 1.67558C70.8305 1.67558 72.0947 2.1198 73.0232 3.01812C73.9516 3.91644 74.485 5.77231 74.6233 8.5956C74.6924 10.1849 74.7912 11.4189 74.9295 12.3172C75.0678 13.2155 75.2357 13.9065 75.4431 14.3804C75.6505 14.8641 75.9271 15.1701 76.2728 15.3083C76.6185 15.4465 76.9938 15.5156 77.4086 15.5156C78.8606 15.5156 80.3224 15.259 81.804 14.7456C83.2855 14.2323 84.7474 13.6104 86.1993 12.8898C87.6512 12.1691 89.0242 11.4288 90.3378 10.6686C91.6416 9.90853 92.7775 9.257 93.7454 8.70419C96.432 7.05562 98.5161 5.71308 99.9977 4.67656C101.479 3.64003 102.595 2.82069 103.356 2.19877C104.116 1.57686 104.67 1.16225 105.005 0.954948C105.341 0.747644 105.697 0.648926 106.042 0.648926C106.734 0.648926 107.248 0.81674 107.593 1.16225C107.939 1.50776 108.107 1.92237 108.107 2.40608C108.107 3.16619 107.643 3.76837 106.714 4.21259C105.786 4.65681 104.65 5.12078 103.307 5.60449C101.963 6.0882 100.551 6.64101 99.0692 7.25306C97.5877 7.87497 96.2937 8.70418 95.1974 9.73083C93.8146 11.1129 92.3528 13.0181 90.8021 15.4663C89.2513 17.9144 87.5624 20.7575 85.7351 23.9855C83.9078 27.2234 81.8929 30.8068 79.6903 34.7258C77.4877 38.6547 75.0381 42.8206 72.3515 47.2233C66.771 56.5224 60.0644 63.3733 52.2516 67.786C44.4289 72.1986 36.0728 74.4 27.1834 74.4C22.9757 74.4 19.2421 73.8866 15.9728 72.8501C12.7035 71.8136 9.93785 70.3921 7.70562 68.5658C5.46351 66.7396 3.75476 64.5876 2.58926 62.1098C1.39412 59.6122 0.811371 56.9568 0.811371 54.1335C0.811371 50.7574 1.57191 47.559 3.08311 44.5284C4.59432 41.4978 6.61913 38.8621 9.12793 36.6212C11.6466 34.3803 14.5505 32.6133 17.8593 31.3004C21.1682 29.9874 24.6153 29.3359 28.1908 29.3359C30.5317 29.3359 32.8627 29.6617 35.1641 30.3231C37.4753 30.9746 39.5397 31.9618 41.3669 33.2648C43.1942 34.5778 44.6758 36.2066 45.8117 38.171C46.9475 40.1355 47.5204 42.4257 47.5204 45.0417C47.5204 47.6577 46.8685 50.0368 45.5548 52.169C44.2412 54.3013 42.5621 56.1473 40.4879 57.6971C38.4137 59.247 36.0925 60.4513 33.5146 61.3102C30.9367 62.169 28.3587 62.6033 25.8104 62.6033C24.4276 62.6033 23.0843 62.4849 21.7806 62.2381C20.4669 62.0012 19.3014 61.705 18.2643 61.3595C17.2272 61.014 16.3876 60.6685 15.7357 60.323C15.074 59.9775 14.748 59.7011 14.748 59.4938C14.748 59.0792 14.9554 58.8719 15.3703 58.8719C15.4394 58.8719 15.7357 59.0101 16.2494 59.2865C16.763 59.5629 17.4544 59.859 18.3137 60.1651C19.173 60.4711 20.2101 60.7475 21.4151 60.9943C22.6201 61.2411 23.9832 61.3595 25.4944 61.3595C27.8352 61.3595 30.2354 60.9647 32.675 60.1749C35.1147 59.3852 37.3074 58.2598 39.2335 56.8186C41.1595 55.3674 42.7497 53.6202 43.9844 51.5471C45.2289 49.4839 45.8413 47.2036 45.8413 44.7258C45.8413 43.2747 45.4956 41.8828 44.8042 40.5402C44.1128 39.1977 43.0658 37.9736 41.6534 36.868C40.2409 35.7722 38.5026 34.8936 36.4382 34.2322C34.3739 33.5807 31.954 33.2451 29.1983 33.2451C25.9586 33.2451 22.8078 33.7584 19.7459 34.7949C16.6741 35.8315 13.9381 37.3221 11.5281 39.2865C9.11805 41.251 7.17225 43.6103 5.69068 46.3645C4.20911 49.1187 3.46832 52.1888 3.46832 55.555C3.46832 58.5856 4.13997 61.2016 5.48326 63.403C6.82655 65.6043 8.58468 67.4306 10.7577 68.8817C12.9306 70.3328 15.4197 71.399 18.2544 72.0801C21.0793 72.7711 23.9733 73.1166 26.9364 73.1166C30.7292 73.1166 34.4134 72.6527 37.9988 71.7248C41.5842 70.7968 45.061 69.1976 48.439 66.9173C51.817 64.6468 55.106 61.5964 58.3062 57.7761C61.5163 53.9558 64.6671 49.1878 67.7685 43.4721C69.4872 40.3724 71.1465 37.5294 72.7269 34.9529C74.3072 32.3665 75.9962 29.8789 77.7939 27.4603C79.5816 25.0516 81.5274 22.6429 83.6312 20.2244C85.7351 17.8157 88.1649 15.1997 90.9206 12.3764L90.7132 12.1691C89.7057 12.6726 88.5303 13.2254 87.2265 13.8473ZM93.943 44.3704C95.6616 46.8186 96.5308 49.5827 96.5308 52.6823C96.5308 53.4425 96.432 54.4 96.2246 55.5747C96.0172 56.7495 95.8098 58.0229 95.6023 59.3951C95.3949 60.7771 95.1875 62.1986 94.9801 63.6794C94.7727 65.1601 94.6739 66.552 94.6739 67.8649C94.6739 69.247 94.9011 70.3625 95.3455 71.2213C95.79 72.0801 96.5308 72.5145 97.5679 72.5145C98.3284 72.5145 99.5828 72.0209 101.341 71.014C103.099 70.017 105.213 68.2104 107.702 65.5945C110.25 62.9785 112.028 61.0338 113.026 59.7603C114.023 58.4869 114.626 57.8452 114.833 57.8452C115.179 57.8452 115.347 58.0525 115.347 58.4671C115.347 58.6053 114.912 59.1878 114.053 60.2243C113.194 61.2608 111.732 62.9094 109.658 65.1798C104.561 70.8955 100.254 73.7583 96.7382 73.7583C95.7703 73.7583 94.7727 73.4622 93.7454 72.8797C92.7083 72.2973 91.7799 71.4878 90.9502 70.4513C90.1205 69.4148 89.439 68.1611 88.8859 66.6803C88.3328 65.1996 88.0562 63.5609 88.0562 61.7741C88.0562 60.402 88.1649 58.9311 88.3624 57.3812C88.5698 55.8314 88.7772 54.3507 88.9847 52.939C89.1921 51.5274 89.3995 50.2539 89.6069 49.1187C89.8143 47.9834 89.9131 47.1444 89.9131 46.5915C89.9131 45.4859 89.7254 44.5086 89.3402 43.6498C88.9649 42.791 88.4809 42.0802 87.8982 41.5274C87.3154 40.9746 86.7228 40.56 86.14 40.2934C85.5573 40.017 85.0536 39.8788 84.6387 39.8788C84.293 39.8788 83.8782 39.9874 83.3942 40.1849C82.9102 40.3922 82.4954 40.4909 82.1596 40.4909C81.7447 40.4909 81.3496 40.3329 80.9743 40.0269C80.599 39.7209 80.4014 39.4543 80.4014 39.2569C80.4014 38.5659 80.9545 38.2204 82.0509 38.2204C84.1844 38.2204 86.308 37.7268 88.4118 36.7199C90.5156 35.7229 92.491 34.4494 94.3578 32.8996C96.2147 31.3497 97.9531 29.6913 99.573 27.944C101.193 26.1869 102.625 24.5186 103.86 22.9292C106.27 19.9677 108.808 17.1938 111.455 14.6173C114.112 12.0309 116.799 9.7802 119.515 7.85523C122.231 5.93026 124.957 4.41002 127.683 3.3044C130.409 2.20865 133.076 1.65583 135.694 1.65583C138.795 1.65583 141.205 2.34685 142.934 3.71901C144.652 5.10104 145.521 6.88781 145.521 9.08918C145.521 10.1948 145.156 11.0931 144.435 11.7743C143.714 12.4653 142.766 12.8108 141.59 12.8108C140.622 12.8108 139.694 12.5541 138.795 12.0309C137.896 11.5176 137.452 10.7081 137.452 9.6025C137.452 8.63508 137.689 7.88484 138.173 7.33202C138.657 6.77921 138.894 6.12769 138.894 5.36757C138.894 4.60745 138.459 4.00528 137.6 3.56106C136.741 3.11683 135.615 2.88979 134.242 2.88979C131.832 2.88979 128.987 4.14349 125.718 6.66076C122.439 9.17803 119.258 12.4653 116.157 16.5225C112.087 21.8236 107.751 26.3547 103.129 30.1059C98.5161 33.8571 92.9355 36.7002 86.387 38.6251V38.8324C89.7057 40.0861 92.2145 41.9321 93.943 44.3704Z" fill="#B99982"/>
<path d="M138.548 55.8116C137.886 56.7592 137.175 57.8353 136.395 59.0297C135.615 60.2242 134.805 61.4779 133.985 62.7908C133.155 64.1037 132.414 65.3772 131.753 66.5914C131.091 67.8056 130.558 68.8915 130.143 69.849C129.728 70.7967 129.52 71.468 129.52 71.8629C129.52 72.544 129.935 72.8895 130.765 72.8895C131.891 72.8895 133.353 72.0504 135.15 70.3722C136.958 68.6941 138.953 66.6112 141.146 64.1235C141.58 63.5904 141.857 63.2548 141.946 63.1363C142.045 63.0179 142.143 62.9586 142.242 62.9586C142.539 62.9586 142.677 63.1067 142.677 63.393C142.677 63.4423 142.558 63.6299 142.311 63.9458C142.064 64.2617 141.738 64.6566 141.324 65.1107C140.909 65.5746 140.474 66.0583 140.01 66.5717C139.546 67.085 139.091 67.5588 138.657 67.9932C136.948 69.7503 135.417 71.1521 134.054 72.1985C132.691 73.2449 131.516 73.7681 130.548 73.7681C129.57 73.7681 128.79 73.4325 128.207 72.7414C127.624 72.0504 127.328 70.7178 127.328 68.7237C127.328 68.4769 127.338 68.2498 127.367 68.0327C127.387 67.8155 127.407 67.6082 127.407 67.4107C126.873 67.9438 126.221 68.5855 125.471 69.316C124.71 70.0465 123.92 70.7375 123.09 71.3989C122.261 72.0603 121.431 72.6131 120.601 73.0771C119.772 73.541 119.021 73.7681 118.33 73.7681C117.352 73.7681 116.572 73.5707 115.989 73.1857C115.406 72.8007 114.942 72.2972 114.596 71.6852C114.25 71.0731 114.023 70.3722 113.905 69.5628C113.786 68.7533 113.727 67.9438 113.727 67.1146C113.727 66.5322 113.766 65.9596 113.836 65.3969C113.905 64.8343 113.994 64.2617 114.092 63.6793C113.994 63.6793 113.924 63.7188 113.875 63.7879C113.826 63.857 113.757 63.8964 113.658 63.8964C113.46 63.8964 113.361 63.778 113.361 63.5312C113.361 63.3831 113.431 63.235 113.579 63.0968C113.727 62.9488 114.043 62.5835 114.527 62.0011C115.505 60.7869 116.581 59.6615 117.786 58.6349C118.982 57.6082 120.236 56.7099 121.55 55.93C122.863 55.1502 124.197 54.5381 125.54 54.1038C126.883 53.6694 128.187 53.4424 129.451 53.4424C130.577 53.4424 131.377 53.7978 131.861 54.4986C132.345 55.2094 132.592 56.0485 132.592 57.0159C132.592 57.8945 132.523 58.546 132.375 58.9902L132.523 59.1383C133.155 58.1117 133.659 57.2726 134.024 56.621C134.39 55.9596 134.696 55.4266 134.943 55.012C135.19 54.5974 135.417 54.321 135.634 54.1729C135.852 54.0248 136.158 53.9557 136.553 53.9557L140.059 53.8076C139.704 54.1926 139.21 54.8639 138.548 55.8116ZM116.641 70.5499C116.641 71.2311 116.779 71.7938 117.046 72.2281C117.312 72.6625 117.737 72.8895 118.33 72.8895C119.406 72.8895 120.69 72.317 122.211 71.1718C123.723 70.0267 125.184 68.625 126.597 66.9665C128.009 65.3081 129.214 63.5707 130.222 61.7346C131.219 59.9083 131.723 58.3091 131.723 56.9468C131.723 56.2163 131.535 55.5944 131.18 55.0811C130.814 54.5677 130.241 54.3111 129.461 54.3111C127.999 54.3111 126.498 54.9133 124.967 56.0978C123.436 57.2923 122.053 58.7435 120.838 60.4512C119.614 62.159 118.616 63.9359 117.836 65.7918C117.056 67.6477 116.641 69.2271 116.641 70.5499Z" fill="#B99982"/>
<path d="M147.003 66.9666L147.151 67.1147C147.635 66.5816 148.248 65.8708 148.978 64.9923C149.709 64.1137 150.529 63.166 151.428 62.1394C152.327 61.1127 153.285 60.0959 154.282 59.0693C155.28 58.0426 156.297 57.1246 157.315 56.2953C158.342 55.4661 159.33 54.785 160.278 54.2519C161.226 53.7189 162.095 53.4523 162.876 53.4523C163.853 53.4523 164.545 53.8274 164.96 54.5876C165.375 55.3477 165.582 56.2361 165.582 57.2529C165.582 58.3783 165.177 59.5925 164.377 60.9054C163.577 62.2183 162.668 63.5313 161.671 64.8541C160.673 66.167 159.764 67.4404 158.964 68.6546C158.164 69.8689 157.759 70.9449 157.759 71.8728C157.759 72.5539 158.144 72.8994 158.925 72.8994C159.31 72.8994 159.764 72.8106 160.278 72.6428C160.792 72.475 161.384 72.1591 162.066 71.6951C162.747 71.2311 163.527 70.5895 164.407 69.7603C165.286 68.931 166.283 67.8846 167.409 66.6211C168.14 65.7919 168.713 65.1305 169.128 64.6467C169.543 64.163 169.859 63.778 170.076 63.5115C170.293 63.245 170.441 63.0772 170.511 62.9982C170.59 62.9291 170.669 62.8896 170.767 62.8896C171.014 62.8896 171.133 63.0081 171.133 63.2549C171.133 63.3536 171.103 63.4424 171.064 63.5115C171.014 63.5806 170.916 63.709 170.767 63.8768C170.619 64.0446 170.392 64.2914 170.076 64.6073C169.76 64.9232 169.355 65.397 168.871 66.0288C166.382 69.0002 164.337 71.0337 162.727 72.1295C161.117 73.2252 159.774 73.778 158.707 73.778C157.581 73.778 156.781 73.3535 156.297 72.4947C155.804 71.6458 155.566 70.5105 155.566 69.0989C155.566 67.6379 155.971 66.2361 156.772 64.8935C157.572 63.551 158.48 62.2973 159.478 61.1324C160.475 59.9577 161.374 58.8817 162.184 57.8748C162.984 56.8778 163.389 56.0091 163.389 55.2786C163.389 54.6468 163.073 54.3309 162.441 54.3309C161.759 54.3309 160.614 54.8936 159.004 56.0091C157.394 57.1344 155.507 58.8324 153.334 61.1226C151.161 63.4128 148.771 66.2855 146.163 69.7504C143.556 73.2153 140.909 77.2825 138.222 81.9616L132.148 92.6329L127.249 92.929L152.337 52.2085L152.189 52.0604C151.211 53.1858 150.154 54.4395 149.008 55.8215C147.862 57.2134 146.786 58.5165 145.788 59.7307C144.791 60.9449 143.931 61.9715 143.23 62.8008C142.519 63.63 142.143 64.0446 142.094 64.0446C141.798 64.0446 141.659 63.9261 141.659 63.6793C141.659 63.5806 141.699 63.4819 141.768 63.3832C141.837 63.2845 142.015 63.0772 142.282 62.7613C142.548 62.4454 142.973 61.9617 143.566 61.3003C144.149 60.6389 144.958 59.6813 145.976 58.4079C147.685 56.2657 149.057 54.5481 150.104 53.2549C151.151 51.9617 152.109 50.7672 152.959 49.6715C153.808 48.5757 154.668 47.401 155.517 46.167C156.367 44.9232 157.453 43.2845 158.777 41.2312L162.579 40.5698L147.003 66.9666Z" fill="#B99982"/>
<path d="M178.561 61.9617C177.168 64.0348 176.101 65.6636 175.341 66.858C174.58 68.0525 174.076 68.9706 173.81 69.6024C173.543 70.2341 173.405 70.9153 173.405 71.6458C173.405 72.0802 173.543 72.4059 173.81 72.5935C174.076 72.7909 174.353 72.8896 174.649 72.8896C175.578 72.8896 176.832 72.2578 178.412 70.9844C179.993 69.7208 181.672 68.1315 183.42 66.2361C185.178 64.3408 186.897 62.2677 188.576 60.017C190.255 57.7761 191.658 55.6833 192.784 53.7288L197.465 53.4326C197.12 54.015 196.626 54.7949 195.964 55.7722C195.302 56.7495 194.561 57.8156 193.732 58.9903C192.902 60.1651 192.063 61.3793 191.203 62.6429C190.354 63.9064 189.574 65.1305 188.862 66.2954C188.151 67.4701 187.568 68.5165 187.104 69.4444C186.64 70.3723 186.413 71.1028 186.413 71.6359C186.413 72.4651 186.828 72.8798 187.657 72.8798C188.191 72.8798 189.05 72.4948 190.216 71.705C191.381 70.9252 192.823 69.632 194.532 67.8353C195.599 66.71 196.448 65.8215 197.051 65.17C197.663 64.5086 198.107 64.0249 198.404 63.709C198.7 63.3931 198.878 63.1858 198.957 63.0871C199.036 62.9884 199.115 62.939 199.214 62.939C199.461 62.939 199.579 63.0575 199.579 63.3043C199.579 63.403 199.431 63.6201 199.144 63.9657C198.848 64.3112 198.483 64.706 198.048 65.17C197.614 65.634 197.13 66.1473 196.626 66.7001C196.112 67.2628 195.668 67.7564 195.273 68.2006C193.416 70.1058 191.875 71.5076 190.63 72.4059C189.386 73.3042 188.28 73.7583 187.302 73.7583C186.62 73.7583 186.087 73.6004 185.692 73.2845C185.297 72.9686 185 72.5638 184.773 72.0801C184.556 71.5964 184.408 71.0831 184.339 70.5402C184.27 70.0071 184.23 69.5135 184.23 69.0792C184.23 68.1019 184.398 67.1838 184.744 66.3052L184.595 66.1572C184.062 66.7396 183.4 67.4602 182.62 68.319C181.84 69.168 180.98 69.9972 180.062 70.8067C179.133 71.6063 178.195 72.3072 177.247 72.8896C176.299 73.472 175.41 73.7682 174.58 73.7682C173.415 73.7682 172.555 73.3931 172.022 72.633C171.488 71.8728 171.212 70.935 171.212 69.8195C171.212 68.4079 171.469 67.095 171.982 65.8709C172.496 64.6567 173.138 63.4918 173.918 62.3961C174.699 61.3003 175.528 60.2243 176.407 59.1779C177.286 58.1315 178.067 57.095 178.748 56.0683L178.6 55.9203C177.523 56.7495 176.417 57.7761 175.271 58.9903C174.126 60.2046 172.99 61.399 171.874 62.5738C171.39 63.1068 171.093 63.4523 170.995 63.6004C170.896 63.7485 170.777 63.8176 170.629 63.8176C170.432 63.8176 170.333 63.6695 170.333 63.3832C170.333 63.3339 170.372 63.245 170.442 63.1266C170.511 63.0081 170.669 62.8107 170.916 62.5441C171.163 62.2776 171.538 61.8729 172.051 61.3398C172.565 60.8067 173.237 60.096 174.066 59.2174C174.797 58.4375 175.637 57.5886 176.585 56.6606C177.533 55.7327 178.64 54.7554 179.914 53.7386L184.013 53.4425C181.771 57.0456 179.953 59.8887 178.561 61.9617Z" fill="#B99982"/>
<path d="M200.685 68.3881C200.29 69.2865 200.103 70.2243 200.103 71.2016C200.103 71.6951 200.251 72.0407 200.537 72.2578C200.834 72.475 201.15 72.5836 201.485 72.5836C202.513 72.633 203.836 72.0308 205.476 70.7968C207.106 69.553 208.814 67.9834 210.602 66.0782C212.38 64.173 214.108 62.1098 215.797 59.859C217.477 57.6182 218.879 55.5254 220.005 53.5708L224.687 53.2747C224.341 53.8571 223.847 54.6271 223.185 55.5748C222.524 56.5224 221.783 57.5984 220.953 58.7929C220.124 59.9874 219.284 61.2213 218.435 62.4849C217.585 63.7485 216.795 64.9726 216.094 66.1374C215.383 67.3121 214.8 68.3684 214.336 69.3161C213.871 70.2638 213.644 70.9844 213.644 71.478C213.644 72.3072 214.059 72.7218 214.889 72.7218C215.422 72.7218 216.281 72.3368 217.447 71.5471C218.612 70.7672 220.054 69.474 221.763 67.6675C222.83 66.5422 223.679 65.6537 224.282 65.0022C224.894 64.3408 225.339 63.8571 225.635 63.5412C225.931 63.2253 226.109 63.018 226.188 62.9193C226.257 62.8205 226.346 62.7712 226.445 62.7712C226.692 62.7712 226.81 62.8896 226.81 63.1364C226.81 63.2351 226.662 63.4523 226.376 63.7978C226.079 64.1433 225.714 64.5579 225.279 65.0417C224.845 65.5254 224.361 66.0387 223.857 66.5718C223.344 67.1048 222.899 67.5984 222.504 68.0328C220.647 69.938 219.106 71.3398 217.862 72.2381C216.617 73.1463 215.511 73.5905 214.533 73.5905C213.852 73.5905 213.308 73.4325 212.923 73.1167C212.538 72.8008 212.232 72.396 212.014 71.9123C211.797 71.4286 211.649 70.9153 211.58 70.3822C211.511 69.8492 211.471 69.3556 211.471 68.9212C211.471 67.8946 211.639 66.9765 211.985 66.1473L211.837 65.9992C211.303 66.5816 210.642 67.3023 209.861 68.1611C209.081 69.0101 208.222 69.8097 207.303 70.5402C206.375 71.2213 205.387 71.9024 204.34 72.5836C203.293 73.2647 202.325 73.6102 201.446 73.6102C200.132 73.6102 199.174 73.1759 198.591 72.2973C198.009 71.4187 197.712 70.3526 197.712 69.0792C197.712 68.0525 197.851 67.0555 198.117 66.0782C198.384 65.1009 198.74 64.3112 199.174 63.6991C199.609 63.0871 200.122 62.712 200.705 62.5639C201.288 62.4158 201.9 62.633 202.532 63.2253L202.967 64.4C201.831 66.1571 201.08 67.4898 200.685 68.3881ZM236.678 53.4425C236.332 53.9756 235.838 54.7455 235.176 55.7426C234.515 56.7396 233.774 57.8255 232.944 59.0002C232.114 60.1749 231.275 61.3891 230.425 62.6527C229.576 63.9163 228.786 65.1404 228.085 66.3052C227.373 67.48 226.791 68.5362 226.326 69.4839C225.862 70.4316 225.635 71.1522 225.635 71.6458C225.635 72.475 226.099 72.8896 227.028 72.8896C227.61 72.8896 228.569 72.5046 229.882 71.7149C231.196 70.935 232.786 69.6418 234.633 67.8452C235.848 66.7198 236.796 65.8314 237.448 65.1799C238.1 64.5283 238.604 64.0347 238.949 63.7189C239.295 63.403 239.503 63.1957 239.572 63.0969C239.641 62.9982 239.73 62.9489 239.828 62.9489C240.125 62.9489 240.263 63.0673 240.263 63.3141C240.263 63.4128 240.105 63.63 239.789 63.9755C239.473 64.321 239.068 64.7159 238.584 65.1799C238.1 65.6438 237.567 66.1473 237.014 66.6804C236.451 67.2134 235.927 67.7267 235.443 68.2104C233.398 70.1157 231.69 71.5175 230.327 72.4158C228.964 73.3141 227.739 73.7682 226.672 73.7682C225.941 73.7682 225.358 73.6102 224.914 73.2944C224.479 72.9785 224.144 72.5737 223.926 72.09C223.709 71.6063 223.571 71.093 223.521 70.55C223.472 70.017 223.452 69.5234 223.452 69.089C223.452 68.0624 223.62 67.1443 223.966 66.3151L223.818 66.167L232.006 53.7386L236.678 53.4425Z" fill="#B99982"/>
<path d="M299.081 75.1107C299.081 78.9804 298.291 82.7711 296.711 86.5026C295.131 90.2242 292.948 93.5411 290.153 96.4335C287.357 99.3357 284.029 101.656 280.157 103.413C276.285 105.17 272.097 106.048 267.583 106.048C265.578 106.048 263.553 105.742 261.509 105.14C259.464 104.528 257.637 103.64 256.027 102.455C254.417 101.271 253.093 99.8096 252.056 98.0524C251.019 96.2953 250.496 94.3111 250.496 92.09C250.427 89.4444 250.98 87.2331 252.165 85.4858C253.35 83.7287 254.694 82.3565 256.195 81.3496C257.696 80.3427 259.168 79.632 260.6 79.1976C262.032 78.7731 262.971 78.5559 263.395 78.5559C263.83 78.5559 264.037 78.7336 264.037 79.089C264.037 79.4444 263.603 79.6418 262.743 79.6813C261.884 79.7208 260.521 80.2045 258.664 81.1324C258.16 81.4187 257.518 81.8136 256.728 82.317C255.938 82.8205 255.187 83.4424 254.466 84.2025C253.755 84.9528 253.123 85.8807 252.59 86.9962C252.056 88.1018 251.78 89.3753 251.78 90.8066C251.78 92.8106 252.244 94.548 253.172 96.0189C254.101 97.4897 255.247 98.6842 256.61 99.6122C257.973 100.54 259.435 101.241 261.015 101.705C262.585 102.169 264.027 102.406 265.311 102.406C269.183 102.406 272.996 101.586 276.759 99.9379C280.522 98.2893 283.9 96.0682 286.913 93.2746C289.925 90.4809 292.335 87.2627 294.163 83.6102C295.99 79.9577 296.908 76.1571 296.908 72.2282C296.908 70.8659 296.75 69.1878 296.424 67.1838C296.099 65.1799 295.684 63.5017 295.19 62.1394C293.975 63.6399 292.632 65.0614 291.16 66.3842C289.688 67.707 288.078 68.8719 286.33 69.8689C284.572 70.8758 282.695 71.6754 280.69 72.2874C278.685 72.8995 276.571 73.2055 274.349 73.2055C272.344 73.2055 270.448 72.8995 268.65 72.2874C266.862 71.6853 265.302 70.8166 263.978 69.7109C262.655 68.6053 261.617 67.2825 260.857 65.7327C260.106 64.1927 259.731 62.4553 259.731 60.5205C259.731 56.937 260.541 53.8966 262.151 51.3892C263.761 48.8818 265.825 46.7396 268.334 44.943C270.843 43.1562 273.598 41.6459 276.611 40.4317C279.623 39.2175 282.557 38.1414 285.421 37.2135C284.918 35.4267 284.671 33.4919 284.671 31.409C284.671 29.405 284.957 27.3123 285.53 25.1306C286.103 22.949 286.982 20.9648 288.167 19.1682C289.352 17.3814 290.814 15.9105 292.572 14.7654C294.331 13.6203 296.385 13.0477 298.746 13.0477C301.254 13.0477 303.22 13.7881 304.652 15.2491C306.084 16.72 306.805 18.7042 306.805 21.2116C306.805 23.6499 306.124 25.7723 304.761 27.5985C303.398 29.4248 301.719 31.0141 299.714 32.3764C297.709 33.7387 295.555 34.8838 293.264 35.8117C290.972 36.7397 288.888 37.5689 287.031 38.2796C287.249 39.4939 287.693 41.0141 288.375 42.8403C289.056 44.6666 289.846 46.5817 290.735 48.5856C291.634 50.5896 292.543 52.5738 293.471 54.5481C294.4 56.5224 295.19 58.2204 295.842 59.6517C296.987 58.2204 298.202 56.71 299.496 55.1404C300.79 53.5708 302.025 51.9914 303.2 50.4119C304.385 48.8324 305.492 47.3319 306.529 45.9006C307.566 44.4692 308.484 43.176 309.275 42.0309C310.203 40.6686 311.369 39.1286 312.761 37.4109C314.164 35.6933 315.705 34.0842 317.384 32.5738C319.063 31.0734 320.821 29.7999 322.648 28.7634C324.476 27.7269 326.323 27.2037 328.18 27.2037C329.325 27.2037 330.273 27.5097 331.024 28.1119C331.775 28.7239 332.15 29.6321 332.15 30.8562C332.15 32.0803 331.795 33.0181 331.074 33.6992C330.352 34.3804 329.385 34.716 328.17 34.716C327.449 34.716 326.876 34.5186 326.451 34.1237C326.026 33.7288 325.661 33.2846 325.374 32.7811C325.088 32.2777 324.782 31.8335 324.466 31.4386C324.14 31.0437 323.725 30.8463 323.231 30.8463C322.727 30.8463 322.046 31.0931 321.186 31.5965C320.327 32.1 319.359 32.8009 318.283 33.6893C317.206 34.5877 316.1 35.6439 314.954 36.8581C313.808 38.0822 312.732 39.3655 311.734 40.7278C309.225 44.2322 306.628 47.6972 303.941 51.093C301.254 54.4987 298.726 57.6972 296.365 60.708C298.193 65.2292 299.081 70.0268 299.081 75.1107ZM265.558 62.2282C265.558 64.9528 266.329 67.243 267.87 69.0989C269.41 70.9647 271.574 71.8926 274.369 71.8926C278.527 71.8926 282.34 70.8166 285.816 68.6744C289.293 66.5224 292.286 63.9459 294.785 60.9449C293.353 57.1542 291.782 53.5017 290.054 49.9874C288.335 46.483 286.903 42.7219 285.757 38.714C283.179 39.7209 280.67 40.9351 278.231 42.3665C275.801 43.7979 273.648 45.4859 271.781 47.4109C269.914 49.3458 268.413 51.5274 267.267 53.9657C266.131 56.3941 265.558 59.1483 265.558 62.2282ZM285.974 30.3231C285.974 31.3991 285.994 32.485 286.034 33.6005C286.063 34.7061 286.261 35.8019 286.626 36.8779C288.483 36.1671 290.528 35.407 292.75 34.6271C294.973 33.8374 297.027 32.8601 298.923 31.6755C300.82 30.4909 302.4 29.0398 303.655 27.3221C304.909 25.6045 305.531 23.4919 305.531 20.9845C305.531 19.1287 304.939 17.5492 303.763 16.256C302.578 14.9628 300.988 14.3212 298.983 14.3212C296.899 14.3212 295.081 14.8444 293.501 15.8809C291.92 16.9174 290.557 18.2106 289.422 19.7506C288.276 21.2906 287.417 23.0082 286.844 24.9036C286.261 26.7989 285.974 28.6054 285.974 30.3231Z" fill="#B99982"/>
<path d="M145.373 156.404L148.356 149.799C144.524 149.237 140.741 148.358 137.007 147.193C133.284 146.019 129.886 144.301 126.834 142.031C124.424 144.163 121.806 146.127 119.001 147.944C116.196 149.75 113.194 151.33 110.003 152.682C106.803 154.034 103.395 155.091 99.7804 155.88C96.1555 156.66 92.3923 157.055 88.4908 157.055C84.7968 157.055 81.3003 156.542 77.9914 155.515C74.6924 154.489 71.7984 153.018 69.3094 151.093C66.8204 149.178 64.8548 146.907 63.393 144.281C61.9411 141.655 61.2101 138.743 61.2101 135.545C61.2101 131.646 62.0991 128.181 63.877 125.16C65.6549 122.139 67.8871 119.582 70.5934 117.49C73.2899 115.397 76.2234 113.798 79.3841 112.692C82.5448 111.596 85.5079 111.043 88.2834 111.043C91.5527 111.043 94.427 111.488 96.916 112.376C99.4051 113.265 101.499 114.449 103.198 115.94C104.907 117.43 106.181 119.138 107.03 121.053C107.88 122.968 108.304 124.992 108.304 127.124C108.304 129.888 107.643 132.376 106.329 134.577C105.015 136.779 103.326 138.645 101.272 140.165C99.2075 141.695 96.9062 142.86 94.348 143.679C91.7898 144.498 89.2711 144.903 86.7821 144.903C84.5795 144.903 83.2164 144.834 82.6831 144.686C82.1497 144.548 81.883 144.301 81.883 143.946C81.883 143.521 82.1003 143.304 82.525 143.304C82.8115 143.304 83.1769 143.363 83.6411 143.462C84.1054 143.57 84.7968 143.62 85.7153 143.62C88.4809 143.62 91.128 143.245 93.6566 142.504C96.1752 141.754 98.3976 140.678 100.314 139.257C102.23 137.835 103.761 136.117 104.897 134.094C106.033 132.07 106.606 129.819 106.606 127.332C106.606 123.709 105.233 120.767 102.506 118.497C99.7705 116.226 95.7011 115.091 90.3082 115.091C87.2562 115.091 84.1646 115.644 81.0435 116.739C77.9124 117.835 75.0974 119.365 72.5689 121.32C70.0502 123.274 67.9859 125.634 66.3858 128.398C64.7857 131.162 63.9856 134.183 63.9856 137.45C63.9856 140.076 64.677 142.504 66.0598 144.745C67.4426 146.986 69.2699 148.921 71.5416 150.55C73.8134 152.179 76.4111 153.462 79.3248 154.38C82.2386 155.308 85.182 155.762 88.1649 155.762C95.4147 155.762 102.013 154.577 107.978 152.198C113.944 149.819 119.841 146.147 125.668 141.182C121.836 138.2 118.656 134.824 116.137 131.063C113.618 127.302 112.354 122.968 112.354 118.072C112.354 115.229 112.838 112.771 113.796 110.668C114.754 108.576 116.018 106.818 117.579 105.397C119.14 103.975 120.868 102.909 122.745 102.198C124.621 101.488 126.528 101.132 128.444 101.132C130.854 101.132 133.185 101.547 135.427 102.356C137.669 103.176 139.743 104.271 141.66 105.654C143.576 107.036 145.294 108.655 146.825 110.501C148.356 112.347 149.611 114.301 150.608 116.354C156.149 110.323 161.335 105.14 166.165 100.807C170.995 96.4729 175.311 92.929 179.114 90.1551C182.916 87.3811 186.126 85.3476 188.754 84.0346C191.381 82.7217 193.297 82.0603 194.512 82.0603C194.868 82.0603 195.045 82.3071 195.045 82.8007C195.045 82.9389 194.621 83.4917 193.771 84.4493C192.922 85.4068 191.727 86.8481 190.206 88.7632C188.675 90.6783 186.847 93.1462 184.724 96.1669C182.59 99.1876 180.25 102.791 177.691 106.976C175.489 110.53 173.444 114.044 171.568 117.519C169.681 120.994 167.873 124.479 166.135 127.954C164.397 131.428 162.688 134.923 161.019 138.447C159.349 141.961 157.621 145.456 155.853 148.931C157.344 148.931 158.856 148.753 160.377 148.398C161.908 148.042 163.518 147.549 165.226 146.907C166.718 146.335 167.962 145.723 168.95 145.041C169.948 144.37 170.777 143.748 171.449 143.176C172.121 142.603 172.634 142.129 172.99 141.734C173.345 141.349 173.592 141.152 173.74 141.152C174.096 141.152 174.274 141.33 174.274 141.685C174.274 141.902 173.859 142.425 173.049 143.284C172.229 144.133 171.044 145.061 169.483 146.048C167.923 147.045 165.947 147.944 163.567 148.763C161.187 149.582 158.47 150.056 155.418 150.204L153.077 156.384H145.373V156.404ZM116.394 119.987C116.394 124.814 117.411 128.842 119.436 132.07C121.461 135.298 123.861 138.013 126.626 140.214C130.745 136.739 134.637 133.067 138.291 129.197C141.946 125.328 145.699 121.438 149.532 117.539C148.534 115.762 147.457 114.074 146.282 112.485C145.107 110.885 143.793 109.484 142.341 108.279C140.889 107.075 139.269 106.117 137.491 105.407C135.713 104.696 133.728 104.341 131.526 104.341C129.679 104.341 127.851 104.647 126.034 105.249C124.226 105.851 122.606 106.789 121.184 108.072C119.762 109.346 118.606 110.984 117.717 112.968C116.838 114.953 116.394 117.292 116.394 119.987ZM152.189 131.596C152.189 129.464 151.991 127.213 151.606 124.834C151.211 122.455 150.697 120.491 150.065 118.921C146.233 122.613 142.588 126.374 139.141 130.204C135.694 134.034 131.95 137.657 127.901 141.063C130.884 143.334 134.262 145.041 138.025 146.177C141.788 147.312 145.373 148.092 148.781 148.516C149.779 145.821 150.588 143.067 151.23 140.263C151.872 137.47 152.189 134.577 152.189 131.596ZM169.029 111.31C175.35 102.05 182.6 93.4423 190.769 85.4858L190.551 85.2686C189.346 85.4068 187.371 86.3742 184.635 88.1412C181.899 89.9181 178.719 92.2972 175.094 95.2784C171.469 98.2597 167.587 101.685 163.429 105.555C159.27 109.424 155.171 113.521 151.122 117.855C152.04 119.987 152.663 122.149 152.989 124.35C153.305 126.552 153.473 128.714 153.473 130.846C153.473 132.485 153.403 134.113 153.255 135.742C153.117 137.381 152.9 139.01 152.613 140.639L152.831 140.856C157.305 130.421 162.708 120.579 169.029 111.31Z" fill="#B99982"/>
<path d="M176.21 148.625C175.795 149.336 175.469 149.967 175.222 150.53C174.975 151.093 174.807 151.616 174.708 152.1C174.61 152.583 174.56 153.097 174.56 153.63C174.56 154.212 174.728 154.627 175.074 154.874C175.41 155.12 175.755 155.239 176.101 155.239C177.227 155.239 178.728 154.439 180.635 152.83C182.541 151.172 184.368 149.642 186.117 148.22C186.996 147.49 187.885 146.651 188.783 145.703C189.682 144.755 190.542 143.738 191.342 142.672C192.142 141.606 192.902 140.53 193.613 139.454C194.324 138.388 194.966 137.361 195.549 136.384L200.231 136.088C199.885 136.621 199.391 137.391 198.73 138.388C198.068 139.385 197.327 140.471 196.497 141.646C195.668 142.82 194.828 144.035 193.969 145.298C193.119 146.562 192.339 147.786 191.628 148.951C190.917 150.125 190.334 151.182 189.87 152.129C189.406 153.077 189.178 153.798 189.178 154.291C189.178 155.12 189.593 155.535 190.423 155.535C190.956 155.535 191.816 155.15 192.981 154.36C194.147 153.58 195.589 152.287 197.297 150.491C198.364 149.365 199.214 148.477 199.816 147.825C200.429 147.164 200.873 146.68 201.169 146.364C201.466 146.048 201.643 145.841 201.713 145.742C201.792 145.644 201.871 145.594 201.969 145.594C202.216 145.594 202.335 145.713 202.335 145.96C202.335 146.058 202.187 146.275 201.9 146.621C201.604 146.966 201.238 147.381 200.804 147.865C200.369 148.348 199.885 148.862 199.382 149.395C198.868 149.928 198.423 150.422 198.028 150.856C196.171 152.761 194.631 154.163 193.386 155.061C192.142 155.96 191.035 156.414 190.058 156.414C189.376 156.414 188.843 156.256 188.448 155.94C188.052 155.624 187.756 155.219 187.529 154.735C187.312 154.252 187.164 153.738 187.094 153.195C187.025 152.662 186.986 152.169 186.986 151.734C186.986 150.708 187.154 149.79 187.499 148.961L187.351 148.812C186.818 149.395 186.156 150.017 185.376 150.678C184.595 151.34 183.647 152.08 182.521 152.909C181.445 153.738 180.348 154.528 179.232 155.288C178.106 156.048 177.01 156.423 175.943 156.423C174.58 156.423 173.563 155.94 172.911 154.962C172.249 153.985 171.923 152.771 171.923 151.31C171.923 150.135 172.061 149.01 172.328 147.914C172.595 146.818 173 145.861 173.533 145.032C174.066 144.153 174.738 143.64 175.548 143.501C176.348 143.353 176.901 143.748 177.197 144.666L177.78 146.058C177.148 147.045 176.625 147.914 176.21 148.625Z" fill="#B99982"/>
<path d="M220.499 139.592C220.499 140.955 219.916 142.189 218.741 143.284C217.565 144.38 216.183 145.328 214.573 146.137C212.963 146.937 211.303 147.608 209.594 148.151C207.886 148.684 206.493 149.059 205.426 149.247C205.229 149.977 205.13 150.777 205.13 151.655C205.13 153.067 205.357 154.054 205.821 154.617C206.286 155.18 207.076 155.486 208.202 155.535C209.18 155.584 210.562 155.18 212.37 154.331C214.177 153.482 216.202 151.952 218.444 149.76C219.857 148.299 220.825 147.223 221.338 146.542C221.852 145.861 222.178 145.515 222.326 145.515C222.573 145.515 222.692 145.663 222.692 145.95C222.692 146.048 222.534 146.295 222.217 146.68C221.901 147.075 221.496 147.549 221.012 148.102C220.528 148.664 219.975 149.257 219.363 149.888C218.751 150.52 218.178 151.083 217.644 151.567C215.787 153.274 214.098 154.489 212.558 155.219C211.027 155.95 209.397 156.344 207.698 156.394C206.671 156.394 205.812 156.177 205.1 155.732C204.389 155.298 203.797 154.706 203.313 153.975C202.819 153.245 202.473 152.416 202.256 151.488C202.038 150.56 201.93 149.612 201.93 148.635C201.93 148.102 201.969 147.638 202.038 147.243C202.117 146.858 202.147 146.611 202.147 146.512C202.147 146.414 202.117 146.364 202.078 146.364C201.93 146.512 201.801 146.572 201.673 146.552C201.554 146.522 201.485 146.394 201.485 146.147C201.485 146.098 201.594 145.93 201.811 145.634C202.029 145.338 202.295 145.022 202.611 144.686C202.927 144.35 203.234 144.015 203.53 143.699C203.826 143.383 204.044 143.156 204.192 143.008C206.236 140.964 208.35 139.296 210.523 138.003C212.696 136.71 214.8 136.068 216.854 136.068C217.98 136.068 218.869 136.394 219.521 137.055C220.173 137.727 220.499 138.566 220.499 139.592ZM216.844 136.957C215.866 136.957 214.8 137.361 213.624 138.161C212.459 138.961 211.323 139.948 210.227 141.122C209.13 142.297 208.162 143.531 207.333 144.854C206.503 146.167 205.97 147.342 205.723 148.358C206.938 148.21 208.281 147.855 209.743 147.302C211.204 146.739 212.568 146.009 213.842 145.111C215.106 144.212 216.173 143.186 217.022 142.04C217.872 140.895 218.306 139.661 218.306 138.348C218.306 137.421 217.822 136.957 216.844 136.957Z" fill="#B99982"/>
<path d="M223.719 156.117L218.741 156.414L230.445 137.48L230.297 137.332C230.001 137.677 229.655 138.092 229.24 138.575C228.825 139.059 228.401 139.592 227.956 140.145C227.522 140.708 227.067 141.241 226.603 141.754C226.139 142.267 225.714 142.741 225.319 143.176C224.489 144.054 223.847 144.765 223.383 145.298C222.919 145.831 222.563 146.246 222.326 146.542C222.079 146.838 221.911 147.016 221.813 147.085C221.714 147.154 221.645 147.193 221.595 147.193C221.398 147.193 221.299 147.045 221.299 146.759C221.299 146.66 221.358 146.532 221.487 146.354C221.605 146.187 221.872 145.861 222.287 145.367C222.702 144.883 223.324 144.183 224.153 143.284C224.983 142.386 226.099 141.122 227.522 139.523C229.329 137.43 230.85 135.535 232.095 133.857C233.339 132.179 234.544 130.382 235.72 128.487C236.895 126.591 238.169 124.42 239.562 121.981C240.954 119.543 242.693 116.502 244.797 112.84L249.33 112.406L223.719 156.117ZM247.128 140.323C246.347 140.323 245.844 140.096 245.626 139.632C245.409 139.168 245.271 138.526 245.221 137.697C244.392 137.845 243.769 138.151 243.355 138.615C242.94 139.079 242.436 139.8 241.853 140.777C241.221 141.754 240.332 142.593 239.186 143.294C238.041 144.005 236.885 144.479 235.71 144.716V144.864C236.194 144.962 236.668 145.17 237.132 145.486C237.596 145.802 238.011 146.177 238.377 146.621C238.742 147.055 239.038 147.529 239.256 148.013C239.473 148.496 239.582 148.941 239.582 149.326C239.582 149.721 239.493 150.175 239.325 150.718C239.157 151.251 238.969 151.774 238.772 152.287C238.574 152.801 238.396 153.245 238.228 153.64C238.06 154.034 237.972 154.301 237.972 154.439C237.972 154.735 238.08 154.992 238.298 155.209C238.515 155.426 238.772 155.535 239.068 155.535C239.601 155.535 240.224 155.338 240.935 154.953C241.646 154.568 242.347 154.084 243.058 153.531C243.769 152.968 244.411 152.396 244.994 151.813C245.577 151.231 246.041 150.747 246.387 150.352C247.414 149.286 248.194 148.437 248.728 147.835C249.261 147.223 249.666 146.749 249.933 146.414C250.199 146.068 250.367 145.851 250.446 145.752C250.516 145.653 250.604 145.604 250.703 145.604C251 145.604 251.138 145.723 251.138 145.969C251.138 146.019 251.029 146.187 250.812 146.483C250.595 146.779 250.298 147.144 249.933 147.578C249.567 148.013 249.162 148.487 248.728 148.97C248.293 149.464 247.849 149.918 247.414 150.362C246.782 151.043 246.081 151.754 245.33 152.485C244.57 153.215 243.809 153.877 243.029 154.459C242.248 155.041 241.498 155.515 240.757 155.88C240.026 156.246 239.364 156.433 238.782 156.433C238.1 156.433 237.517 156.246 237.023 155.88C236.539 155.515 236.134 155.051 235.818 154.489C235.502 153.926 235.265 153.334 235.127 152.702C234.979 152.07 234.91 151.488 234.91 150.945C234.91 149.879 235.157 148.98 235.641 148.279C236.125 147.569 236.371 146.927 236.371 146.344C236.371 146.048 236.223 145.782 235.937 145.545C235.641 145.298 235.354 145.18 235.058 145.18C234.663 145.18 234.268 145.347 233.853 145.693C233.438 146.038 232.885 146.206 232.203 146.206C231.472 146.206 231.107 145.91 231.107 145.328C231.107 145.081 231.265 144.834 231.581 144.558C231.897 144.291 232.589 144.153 233.665 144.153C233.863 144.153 234.04 144.183 234.208 144.222C234.376 144.271 234.663 144.291 235.048 144.291C235.68 144.291 236.648 143.827 237.942 142.899C239.236 141.971 240.411 140.826 241.488 139.464C242.555 138.102 243.434 137.193 244.125 136.759C244.807 136.325 245.567 136.098 246.397 136.098C247.226 136.098 247.898 136.305 248.412 136.72C248.925 137.134 249.182 137.687 249.182 138.368C249.182 139 248.975 139.494 248.56 139.829C248.135 140.155 247.661 140.323 247.128 140.323Z" fill="#B99982"/>
<path d="M269.944 139.661C269.944 140.342 269.697 141.043 269.213 141.744C268.729 142.455 268.067 142.8 267.238 142.8C266.556 142.8 266.082 142.613 265.815 142.248C265.549 141.882 265.41 141.458 265.41 140.964C265.41 140.481 265.519 140.135 265.736 139.938C265.954 139.74 266.21 139.582 266.507 139.464C266.803 139.345 267.06 139.197 267.277 139.03C267.494 138.862 267.603 138.575 267.603 138.19C267.603 137.894 267.465 137.618 267.198 137.351C266.931 137.085 266.507 136.947 265.914 136.947C264.788 136.947 263.563 137.371 262.22 138.23C260.877 139.079 259.622 140.234 258.457 141.665C257.281 143.106 256.294 144.775 255.494 146.67C254.694 148.575 254.289 150.569 254.289 152.662C254.289 154.558 255.316 155.515 257.36 155.515C258.625 155.515 260.106 155.061 261.785 154.163C263.464 153.264 265.114 151.961 266.724 150.254C267.702 149.227 268.462 148.398 269.025 147.766C269.588 147.134 270.003 146.66 270.27 146.344C270.537 146.029 270.724 145.811 270.813 145.683C270.912 145.565 270.981 145.505 271.03 145.505C271.327 145.505 271.465 145.653 271.465 145.94C271.465 146.038 271.188 146.413 270.625 147.075C270.062 147.736 269.391 148.477 268.61 149.306C266.27 151.843 264.185 153.659 262.358 154.755C260.531 155.851 258.684 156.404 256.837 156.404C255.711 156.404 254.773 156.147 254.022 155.634C253.261 155.12 252.669 154.479 252.234 153.699C251.8 152.919 251.493 152.05 251.316 151.103C251.138 150.155 251.059 149.237 251.059 148.358C251.059 147.776 251.098 147.322 251.167 147.006C251.237 146.69 251.276 146.483 251.276 146.384C251.276 146.285 251.227 146.236 251.128 146.236C251.029 146.236 250.95 146.285 250.871 146.384C250.792 146.483 250.713 146.532 250.614 146.532C250.367 146.532 250.249 146.413 250.249 146.167C250.249 146.117 250.278 146.058 250.318 145.989C250.367 145.92 250.466 145.772 250.614 145.555C250.762 145.337 251 145.031 251.345 144.637C251.681 144.252 252.145 143.709 252.738 143.028C254.832 140.54 256.916 138.763 258.99 137.687C261.064 136.621 263.119 136.078 265.173 136.078C266.586 136.078 267.731 136.384 268.61 136.996C269.509 137.608 269.944 138.496 269.944 139.661Z" fill="#B99982"/>
<path d="M295.802 138.457C295.141 139.405 294.429 140.481 293.649 141.675C292.869 142.87 292.059 144.123 291.239 145.436C290.409 146.749 289.669 148.023 289.007 149.237C288.345 150.451 287.812 151.537 287.397 152.495C286.982 153.442 286.775 154.113 286.775 154.508C286.775 155.19 287.189 155.535 288.019 155.535C289.145 155.535 290.607 154.696 292.405 153.018C294.212 151.34 296.207 149.257 298.4 146.769C298.835 146.236 299.111 145.9 299.2 145.782C299.299 145.663 299.398 145.604 299.496 145.604C299.793 145.604 299.931 145.752 299.931 146.039C299.931 146.088 299.812 146.275 299.566 146.591C299.319 146.907 298.993 147.302 298.578 147.756C298.163 148.22 297.728 148.704 297.264 149.217C296.8 149.731 296.346 150.204 295.911 150.639C294.202 152.396 292.671 153.798 291.308 154.844C289.945 155.89 288.77 156.414 287.802 156.414C286.824 156.414 286.044 156.078 285.461 155.387C284.878 154.706 284.582 153.363 284.582 151.369C284.582 151.122 284.592 150.895 284.621 150.678C284.641 150.461 284.661 150.254 284.661 150.056C284.128 150.589 283.476 151.231 282.725 151.961C281.964 152.692 281.174 153.383 280.345 154.044C279.515 154.706 278.685 155.259 277.856 155.723C277.026 156.187 276.275 156.414 275.584 156.414C274.606 156.414 273.826 156.216 273.243 155.831C272.66 155.446 272.196 154.943 271.85 154.331C271.505 153.719 271.277 153.018 271.159 152.208C271.04 151.399 270.981 150.589 270.981 149.76C270.981 149.178 271.021 148.605 271.09 148.042C271.159 147.48 271.248 146.907 271.346 146.325C271.248 146.325 271.179 146.364 271.129 146.433C271.08 146.502 271.011 146.542 270.912 146.542C270.714 146.542 270.616 146.424 270.616 146.177C270.616 146.029 270.685 145.881 270.833 145.742C270.981 145.594 271.297 145.229 271.781 144.647C272.759 143.432 273.836 142.307 275.041 141.28C276.236 140.254 277.49 139.355 278.804 138.576C280.117 137.796 281.451 137.184 282.794 136.749C284.137 136.315 285.441 136.088 286.705 136.088C287.831 136.088 288.632 136.443 289.116 137.144C289.599 137.855 289.846 138.694 289.846 139.661C289.846 140.54 289.777 141.192 289.629 141.636L289.777 141.784C290.409 140.757 290.913 139.918 291.279 139.267C291.644 138.605 291.95 138.072 292.197 137.657C292.444 137.243 292.671 136.966 292.889 136.818C293.106 136.67 293.412 136.601 293.807 136.601L297.314 136.453C296.968 136.838 296.464 137.509 295.802 138.457ZM273.895 153.186C273.895 153.867 274.033 154.429 274.3 154.864C274.566 155.298 274.991 155.525 275.584 155.525C276.66 155.525 277.944 154.953 279.466 153.807C280.977 152.662 282.439 151.261 283.851 149.602C285.263 147.944 286.468 146.206 287.476 144.37C288.473 142.544 288.977 140.945 288.977 139.582C288.977 138.852 288.79 138.23 288.434 137.717C288.069 137.203 287.496 136.947 286.715 136.947C285.254 136.947 283.752 137.549 282.221 138.733C280.69 139.928 279.307 141.379 278.093 143.087C276.868 144.795 275.87 146.572 275.09 148.427C274.29 150.293 273.895 151.873 273.895 153.186Z" fill="#B99982"/>
<path d="M300.82 156.404L309.966 141.567L310.183 141.349C310.282 141.251 310.341 141.182 310.371 141.132C310.391 141.083 310.45 141.014 310.549 140.915C311.724 138.822 312.307 137.499 312.307 136.966C312.307 136.868 312.297 136.72 312.267 136.532C312.238 136.335 312.159 136.186 312.011 136.098H311.497C311.013 136.098 310.529 136.186 310.075 136.354C309.61 136.522 309.018 136.907 308.287 137.49C307.754 137.924 307.033 138.615 306.134 139.533C305.225 140.461 304.148 141.626 302.874 143.037C302.726 143.334 302.469 143.64 302.104 143.955C301.738 144.271 301.412 144.646 301.116 145.091C300.682 145.772 300.316 146.246 300.02 146.512C299.723 146.779 299.506 146.917 299.358 146.917V146.7H299.062C299.062 146.601 299.111 146.453 299.21 146.265C299.309 146.068 299.358 145.92 299.358 145.831C299.506 145.683 299.714 145.456 299.98 145.14C300.247 144.824 300.523 144.449 300.82 144.005L303.092 141.596C305.383 138.872 307.112 137.035 308.287 136.117C309.018 135.634 309.63 135.239 310.114 134.943C310.598 134.647 311.141 134.508 311.724 134.508C312.109 134.508 312.465 134.647 312.781 134.913C313.097 135.18 313.374 135.466 313.621 135.752C314.006 136.048 314.282 136.414 314.421 136.848C314.569 137.282 314.638 137.726 314.638 138.161C314.638 139.572 314.421 140.737 313.976 141.636C313.542 142.544 312.979 143.551 312.297 144.666L311.714 145.545H319.537C320.515 143.689 321.503 141.902 322.5 140.175C323.498 138.447 324.535 136.779 325.611 135.17L330.362 134.874L324.001 145.545C323.468 146.621 322.866 147.628 322.214 148.575C321.552 149.523 321.028 150.51 320.643 151.537C320.298 152.169 320.08 152.692 319.981 153.106C319.883 153.521 319.833 153.797 319.833 153.946V155.258C319.932 155.258 320.06 155.298 320.238 155.367C320.406 155.436 320.643 155.476 320.93 155.476C321.177 155.476 321.522 155.328 321.987 155.041C322.451 154.745 322.945 154.38 323.488 153.946C324.169 153.363 324.94 152.662 325.789 151.863C326.639 151.063 327.607 150.027 328.673 148.753C328.92 148.457 329.207 148.131 329.552 147.766C329.888 147.401 330.283 147.045 330.718 146.71C330.965 146.275 331.222 145.89 331.488 145.574C331.755 145.259 331.982 145.101 332.18 145.101H332.476V145.535C332.476 145.683 332.466 145.831 332.437 145.969C332.407 146.117 332.328 146.364 332.18 146.7C331.834 146.798 331.508 147.075 331.192 147.539C330.876 148.003 330.323 148.644 329.543 149.474C328.565 150.5 327.636 151.458 326.767 152.366C325.888 153.264 324.96 154.015 323.992 154.597C322.53 155.821 321.404 156.423 320.623 156.423C320.228 156.423 319.823 156.354 319.379 156.206C318.944 156.058 318.599 155.742 318.352 155.258C317.858 154.824 317.562 154.232 317.433 153.501C317.315 152.771 317.245 152.04 317.245 151.31V150.362C317.344 149.73 317.522 149.158 317.789 148.644C318.055 148.131 318.312 147.559 318.559 146.927L318.855 146.71H311.102L305.689 155.772L300.82 156.404Z" fill="#B99982"/>
<path d="M347.193 156.848C348.22 156.414 349.267 155.831 350.344 155.13C351.411 154.42 352.467 153.63 353.485 152.751C354.512 151.873 355.5 150.945 356.448 149.977C357.396 149 358.265 148.052 359.046 147.124C359.628 146.443 359.994 145.999 360.142 145.811C360.29 145.614 360.438 145.515 360.577 145.515C360.774 145.515 360.873 145.634 360.873 145.881C360.873 146.078 360.705 146.364 360.359 146.759C360.014 147.154 359.312 147.934 358.236 149.099C356.29 151.29 354.235 153.176 352.092 154.765C349.949 156.354 348.122 157.411 346.61 157.944C346.176 158.872 345.553 160.036 344.744 161.448C343.943 162.86 343.015 164.36 341.968 165.94C340.921 167.519 339.775 169.099 338.531 170.658C337.286 172.218 336.032 173.63 334.768 174.903C333.503 176.167 332.229 177.203 330.965 178.013C329.701 178.812 328.505 179.217 327.38 179.217C326.313 179.217 325.434 178.911 324.742 178.309C324.061 177.697 323.715 176.759 323.715 175.495C323.715 174.034 324.15 172.643 325.029 171.33C325.908 170.017 327.172 168.674 328.831 167.312C330.491 165.95 332.516 164.548 334.906 163.107C337.296 161.665 340.022 160.076 343.104 158.319C343.637 157.095 344.289 155.713 345.04 154.153C345.791 152.593 346.857 150.5 348.22 147.865L348.072 147.717C347.539 148.447 346.847 149.316 346.028 150.313C345.198 151.31 344.279 152.258 343.282 153.166C342.284 154.074 341.247 154.834 340.17 155.466C339.094 156.098 338.047 156.414 337.029 156.414C335.321 156.414 334.135 155.831 333.484 154.656C332.822 153.482 332.496 151.952 332.496 150.046C332.496 149.118 332.585 148.388 332.753 147.855C332.921 147.322 333.009 146.779 333.009 146.246C333.009 146.098 332.911 146.029 332.713 146.029C332.466 146.029 332.298 146.117 332.2 146.285C332.101 146.453 332.002 146.542 331.903 146.542C331.706 146.542 331.607 146.394 331.607 146.108C331.607 146.009 331.745 145.802 332.012 145.486C332.279 145.17 332.93 144.449 333.948 143.324C334.777 142.445 335.765 141.586 336.911 140.728C338.057 139.879 339.262 139.109 340.536 138.427C341.8 137.746 343.074 137.184 344.339 136.749C345.603 136.315 346.778 136.088 347.845 136.088C349.02 136.088 349.939 136.354 350.62 136.887C351.302 137.421 351.648 138.329 351.648 139.592C351.648 140.767 351.549 141.616 351.351 142.149L351.499 142.297C351.983 141.517 352.497 140.649 353.03 139.701C353.564 138.753 354.077 137.766 354.561 136.739L359.312 136.374L347.025 156.7L347.193 156.848ZM325.611 175.565C325.611 176.394 325.72 177.065 325.937 177.578C326.155 178.092 326.757 178.348 327.725 178.348C328.654 178.348 329.612 177.983 330.609 177.253C331.607 176.522 332.624 175.584 333.642 174.439C334.669 173.294 335.657 172.001 336.605 170.57C337.553 169.128 338.432 167.717 339.242 166.325C340.042 164.933 340.724 163.63 341.287 162.416C341.85 161.191 342.245 160.224 342.492 159.494C341.267 160.224 339.716 161.152 337.81 162.267C335.903 163.393 334.056 164.656 332.249 166.068C330.441 167.48 328.881 168.99 327.567 170.599C326.273 172.198 325.611 173.857 325.611 175.565ZM348.576 136.957C347.114 136.957 345.593 137.539 344.003 138.714C342.422 139.879 340.97 141.32 339.647 143.028C338.333 144.735 337.247 146.522 336.387 148.398C335.538 150.273 335.103 151.892 335.103 153.265C335.103 153.896 335.261 154.429 335.578 154.874C335.894 155.308 336.368 155.535 337 155.535C337.928 155.535 338.906 155.229 339.923 154.617C340.951 154.005 341.968 153.225 342.995 152.277C344.022 151.33 345 150.264 345.919 149.099C346.847 147.924 347.677 146.759 348.408 145.594C349.139 144.42 349.712 143.314 350.127 142.268C350.541 141.221 350.749 140.352 350.749 139.671C350.749 138.842 350.601 138.191 350.314 137.697C350.048 137.203 349.455 136.957 348.576 136.957Z" fill="#B99982"/>
<path d="M365.189 149.612L365.337 149.76C365.821 149.227 366.434 148.516 367.165 147.638C367.896 146.759 368.715 145.811 369.614 144.785C370.513 143.758 371.471 142.741 372.469 141.715C373.466 140.688 374.484 139.77 375.501 138.941C376.528 138.112 377.516 137.43 378.464 136.897C379.412 136.364 380.282 136.098 381.062 136.098C382.04 136.098 382.731 136.473 383.146 137.233C383.561 137.993 383.768 138.882 383.768 139.898C383.768 141.024 383.363 142.238 382.563 143.551C381.763 144.864 380.854 146.177 379.857 147.499C378.859 148.812 377.95 150.086 377.15 151.3C376.35 152.514 375.945 153.59 375.945 154.518C375.945 155.199 376.331 155.545 377.111 155.545C377.496 155.545 377.951 155.456 378.464 155.288C378.978 155.12 379.57 154.804 380.252 154.34C380.933 153.877 381.714 153.235 382.593 152.406C383.472 151.576 384.469 150.53 385.595 149.266C386.326 148.437 386.899 147.776 387.314 147.292C387.729 146.808 388.045 146.423 388.262 146.157C388.48 145.89 388.628 145.723 388.697 145.644C388.776 145.574 388.855 145.535 388.954 145.535C389.201 145.535 389.319 145.653 389.319 145.9C389.319 145.999 389.289 146.088 389.25 146.157C389.201 146.226 389.102 146.354 388.954 146.522C388.805 146.69 388.578 146.937 388.262 147.253C387.946 147.569 387.541 148.042 387.057 148.674C384.568 151.646 382.524 153.679 380.914 154.775C379.304 155.871 377.96 156.423 376.894 156.423C375.768 156.423 374.968 155.999 374.484 155.14C373.99 154.291 373.753 153.156 373.753 151.744C373.753 150.283 374.158 148.881 374.958 147.539C375.758 146.196 376.666 144.943 377.664 143.778C378.662 142.603 379.56 141.527 380.37 140.52C381.17 139.523 381.575 138.654 381.575 137.924C381.575 137.292 381.259 136.976 380.627 136.976C379.946 136.976 378.8 137.539 377.19 138.654C375.58 139.78 373.693 141.478 371.52 143.768C369.348 146.058 366.957 148.931 364.35 152.396C361.742 155.861 359.095 159.928 356.408 164.607L350.334 175.278L345.435 175.574L370.523 134.854L370.375 134.706C369.397 135.831 368.34 137.085 367.194 138.467C366.049 139.859 364.972 141.162 363.974 142.376C362.977 143.59 362.117 144.617 361.416 145.446C360.705 146.275 360.33 146.69 360.28 146.69C359.984 146.69 359.846 146.572 359.846 146.325C359.846 146.226 359.885 146.127 359.954 146.029C360.023 145.93 360.201 145.723 360.468 145.407C360.735 145.091 361.159 144.607 361.752 143.946C362.335 143.284 363.145 142.327 364.162 141.053C365.871 138.911 367.244 137.193 368.291 135.9C369.338 134.607 370.296 133.413 371.145 132.317C371.995 131.221 372.854 130.046 373.703 128.812C374.553 127.569 375.639 125.93 376.963 123.877L380.765 123.215L365.189 149.612Z" fill="#B99982"/>
<path d="M413.647 138.457C412.985 139.405 412.274 140.481 411.493 141.675C410.713 142.87 409.903 144.123 409.083 145.436C408.254 146.749 407.513 148.023 406.851 149.237C406.189 150.451 405.656 151.537 405.241 152.495C404.826 153.442 404.619 154.113 404.619 154.508C404.619 155.19 405.034 155.535 405.863 155.535C406.989 155.535 408.451 154.696 410.249 153.018C412.056 151.34 414.051 149.257 416.244 146.769C416.679 146.236 416.955 145.9 417.044 145.782C417.143 145.663 417.242 145.604 417.341 145.604C417.637 145.604 417.775 145.752 417.775 146.039C417.775 146.088 417.657 146.275 417.41 146.591C417.163 146.907 416.837 147.302 416.422 147.756C416.007 148.22 415.573 148.704 415.108 149.217C414.644 149.731 414.19 150.204 413.755 150.639C412.046 152.396 410.515 153.798 409.152 154.844C407.789 155.89 406.614 156.414 405.646 156.414C404.668 156.414 403.888 156.078 403.305 155.387C402.722 154.706 402.426 153.363 402.426 151.369C402.426 151.122 402.436 150.895 402.466 150.678C402.485 150.461 402.505 150.254 402.505 150.056C401.972 150.589 401.32 151.231 400.569 151.961C399.809 152.692 399.018 153.383 398.189 154.044C397.359 154.706 396.529 155.259 395.7 155.723C394.87 156.187 394.119 156.414 393.428 156.414C392.45 156.414 391.67 156.216 391.087 155.831C390.504 155.446 390.04 154.943 389.694 154.331C389.349 153.719 389.122 153.018 389.003 152.208C388.884 151.399 388.825 150.589 388.825 149.76C388.825 149.178 388.865 148.605 388.934 148.042C389.003 147.48 389.092 146.907 389.191 146.325C389.092 146.325 389.023 146.364 388.973 146.433C388.924 146.502 388.855 146.542 388.756 146.542C388.559 146.542 388.46 146.424 388.46 146.177C388.46 146.029 388.529 145.881 388.677 145.742C388.825 145.594 389.141 145.229 389.625 144.647C390.603 143.432 391.68 142.307 392.885 141.28C394.08 140.254 395.334 139.355 396.648 138.576C397.962 137.796 399.295 137.184 400.638 136.749C401.982 136.315 403.285 136.088 404.55 136.088C405.676 136.088 406.476 136.443 406.96 137.144C407.444 137.855 407.691 138.694 407.691 139.661C407.691 140.54 407.621 141.192 407.473 141.636L407.621 141.784C408.254 140.757 408.757 139.918 409.123 139.267C409.488 138.605 409.794 138.072 410.041 137.657C410.288 137.243 410.515 136.966 410.733 136.818C410.95 136.67 411.256 136.601 411.651 136.601L415.158 136.453C414.802 136.838 414.308 137.509 413.647 138.457ZM391.739 153.186C391.739 153.867 391.877 154.429 392.144 154.864C392.411 155.298 392.835 155.525 393.428 155.525C394.505 155.525 395.789 154.953 397.31 153.807C398.821 152.662 400.283 151.261 401.695 149.602C403.108 147.944 404.313 146.206 405.32 144.37C406.318 142.544 406.821 140.945 406.821 139.582C406.821 138.852 406.634 138.23 406.278 137.717C405.913 137.203 405.34 136.947 404.56 136.947C403.098 136.947 401.596 137.549 400.065 138.733C398.534 139.928 397.152 141.379 395.937 143.087C394.712 144.795 393.714 146.572 392.934 148.427C392.124 150.293 391.739 151.873 391.739 153.186Z" fill="#B99982"/>
</svg>
